<mxfile host="app.diagrams.net" agent="Mozilla/5.0 (Windows NT 10.0; Win64; x64) AppleWebKit/537.36 (KHTML, like Gecko) Chrome/133.0.0.0 Safari/537.36 Edg/133.0.0.0" version="26.1.0">
  <diagram name="Page-1" id="8HafSM0gmPLqEAsEj-HD">
    <mxGraphModel dx="465" dy="789" grid="1" gridSize="10" guides="1" tooltips="1" connect="1" arrows="1" fold="1" page="1" pageScale="1" pageWidth="850" pageHeight="1100" math="0" shadow="0">
      <root>
        <mxCell id="0" />
        <mxCell id="1" parent="0" />
        <mxCell id="AwRsr8974ebyzhCeOiM1-4" value="" style="endArrow=none;dashed=1;html=1;rounded=0;" edge="1" parent="1">
          <mxGeometry width="50" height="50" relative="1" as="geometry">
            <mxPoint x="394.5" y="350" as="sourcePoint" />
            <mxPoint x="394.5" y="120" as="targetPoint" />
          </mxGeometry>
        </mxCell>
        <mxCell id="AwRsr8974ebyzhCeOiM1-1" value="Apartment Owner" style="shape=umlActor;verticalLabelPosition=bottom;verticalAlign=top;html=1;outlineConnect=0;" vertex="1" parent="1">
          <mxGeometry x="200" y="60" width="30" height="60" as="geometry" />
        </mxCell>
        <mxCell id="AwRsr8974ebyzhCeOiM1-3" value="" style="endArrow=none;dashed=1;html=1;rounded=0;" edge="1" parent="1" target="AwRsr8974ebyzhCeOiM1-1">
          <mxGeometry width="50" height="50" relative="1" as="geometry">
            <mxPoint x="215" y="350" as="sourcePoint" />
            <mxPoint x="230" y="150" as="targetPoint" />
          </mxGeometry>
        </mxCell>
        <mxCell id="AwRsr8974ebyzhCeOiM1-2" value="System" style="shape=umlActor;verticalLabelPosition=bottom;verticalAlign=top;html=1;outlineConnect=0;" vertex="1" parent="1">
          <mxGeometry x="380" y="60" width="30" height="60" as="geometry" />
        </mxCell>
        <mxCell id="AwRsr8974ebyzhCeOiM1-5" value="" style="endArrow=classic;html=1;rounded=0;" edge="1" parent="1" source="AwRsr8974ebyzhCeOiM1-1" target="AwRsr8974ebyzhCeOiM1-2">
          <mxGeometry width="50" height="50" relative="1" as="geometry">
            <mxPoint x="280" y="430" as="sourcePoint" />
            <mxPoint x="330" y="380" as="targetPoint" />
          </mxGeometry>
        </mxCell>
        <mxCell id="AwRsr8974ebyzhCeOiM1-6" value="Submit Apartment Listing" style="edgeLabel;html=1;align=center;verticalAlign=middle;resizable=0;points=[];" vertex="1" connectable="0" parent="AwRsr8974ebyzhCeOiM1-5">
          <mxGeometry x="0.2267" relative="1" as="geometry">
            <mxPoint as="offset" />
          </mxGeometry>
        </mxCell>
      </root>
    </mxGraphModel>
  </diagram>
</mxfile>
